<?xml version="1.0" encoding="UTF-8" standalone="no"?>
<!-- Generator: Adobe Illustrator 13.0.0, SVG Export Plug-In . SVG Version: 6.00 Build 14948)  -->

<svg
   xmlns:dc="http://purl.org/dc/elements/1.1/"
   xmlns:cc="http://creativecommons.org/ns#"
   xmlns:rdf="http://www.w3.org/1999/02/22-rdf-syntax-ns#"
   xmlns:svg="http://www.w3.org/2000/svg"
   xmlns="http://www.w3.org/2000/svg"
   xmlns:sodipodi="http://sodipodi.sourceforge.net/DTD/sodipodi-0.dtd"
   xmlns:inkscape="http://www.inkscape.org/namespaces/inkscape"
   version="1.1"
   id="Layer_1"
   x="0px"
   y="0px"
   width="111.00667"
   height="150"
   viewBox="0 0 111.00667 150"
   enable-background="new 0 0 1920 1080"
   xml:space="preserve"
   inkscape:version="0.91 r13725"
   sodipodi:docname="logo.svg"><metadata
     id="metadata55"><rdf:RDF><cc:Work
         rdf:about=""><dc:format>image/svg+xml</dc:format><dc:type
           rdf:resource="http://purl.org/dc/dcmitype/StillImage" /><dc:title></dc:title></cc:Work></rdf:RDF></metadata><defs
     id="defs53" /><sodipodi:namedview
     pagecolor="#ffffff"
     bordercolor="#666666"
     borderopacity="1"
     objecttolerance="10"
     gridtolerance="10"
     guidetolerance="10"
     inkscape:pageopacity="0"
     inkscape:pageshadow="2"
     inkscape:window-width="1366"
     inkscape:window-height="715"
     id="namedview51"
     showgrid="false"
     fit-margin-top="0"
     fit-margin-left="0"
     fit-margin-right="0"
     fit-margin-bottom="0"
     inkscape:zoom="1.4458333"
     inkscape:cx="61.589022"
     inkscape:cy="73.246777"
     inkscape:window-x="0"
     inkscape:window-y="0"
     inkscape:window-maximized="1"
     inkscape:current-layer="Layer_1" /><g
     id="Layer_5"
     transform="matrix(0.28139791,0,0,0.28139791,-85.581169,-38.837977)"><path
       d="m 500.211,668.071 c -30.323,0 -59.834,-5.753 -83.096,-16.194 -25.388,-11.4 -42.74,-27.952 -50.18,-47.872 -3.318,-8.881 -26.62,-71.267 -38.545,-103.189 0.554,0.129 1.138,0.245 1.759,0.342 0.76,0.12 1.513,0.226 2.259,0.325 2.834,0.388 5.282,0.723 7.571,1.95 3.069,1.646 4.011,4.14 5.407,8.404 l 3.926,11.853 c 0.865,2.615 3.93,3.635 10.94,3.635 0.775,0 1.387,-0.015 1.703,-0.026 0.61,-0.018 1.214,-0.044 1.814,-0.064 1.426,-0.057 2.772,-0.106 4.115,-0.106 2.334,0 4.229,0.168 5.969,0.526 4.053,0.836 7.399,2.399 9.669,4.515 1.264,1.176 1.728,2.462 2.369,4.244 0.37,1.028 0.79,2.195 1.416,3.411 2.999,5.819 9.989,9.156 19.18,9.156 1.605,0 3.216,-0.104 4.786,-0.307 2.157,-0.281 4.226,-0.751 6.226,-1.202 2.608,-0.59 5.073,-1.146 7.594,-1.279 0.726,-0.04 1.452,-0.058 2.183,-0.058 3.422,0 6.744,0.425 9.871,1.262 4.109,1.098 7.39,2.738 9.754,4.868 0.606,0.54 1.159,1.069 1.705,1.588 1.782,1.702 3.622,3.459 6.305,4.768 3.97,1.941 8.602,2.969 13.392,2.969 4.993,0 9.978,-1.091 14.415,-3.155 l 0.859,-0.4 c 3.939,-1.837 7.341,-3.427 11.394,-4.139 2.397,-0.419 4.862,-0.633 7.332,-0.633 1.74,0 3.499,0.107 5.233,0.318 4.006,0.486 7.696,2.02 11.6,3.644 4.281,1.781 8.708,3.623 13.757,4.104 1.12,0.107 2.252,0.159 3.362,0.159 3.827,0 7.465,-0.619 10.812,-1.84 4.231,-1.541 6.866,-4.029 9.655,-6.662 l 0.727,-0.689 c 5.822,-5.459 14.669,-6.274 19.424,-6.274 0.814,0 1.642,0.022 2.457,0.068 2.849,0.163 5.603,0.697 8.515,1.263 3.476,0.677 7.068,1.374 10.81,1.374 2.714,0 5.219,-0.364 7.658,-1.111 5.5,-1.68 9.383,-4.976 10.927,-9.281 l 0.042,-0.12 0.033,-0.122 c 0.981,-3.677 2.225,-5.659 4.588,-7.311 2.752,-1.926 6.29,-3.157 10.517,-3.662 0.881,-0.105 1.849,-0.157 2.955,-0.157 1.156,0 2.309,0.056 3.53,0.11 1.234,0.058 2.511,0.115 3.805,0.115 0.906,0 1.726,-0.028 2.512,-0.089 l 0.504,-0.033 c 2.457,-0.165 7.027,-0.467 8.328,-4.298 l 2.237,-6.593 c 0.348,-1.02 0.66,-2.119 0.96,-3.181 0.815,-2.873 1.659,-5.844 3.218,-7.598 2.354,-2.651 6.268,-3.6 9.139,-3.928 l 0.632,-0.072 c 1.287,-0.143 2.692,-0.299 4.11,-0.599 l -39.16,102.875 c -7.582,19.924 -25.202,36.531 -50.954,48.027 -23.642,10.559 -53.483,16.371 -84.025,16.371"
       id="path4"
       inkscape:connector-curvature="0"
       style="fill:#990033" /><path
       d="m 679.19,495.207 c -0.02,0.02 -0.037,0.04 -0.058,0.058 -0.052,0.053 -0.096,0.097 -0.102,0.105 0.051,-0.053 0.104,-0.106 0.16,-0.163 m 0.005,-0.005 -0.005,0.005 0.005,-0.005 z m 0.008,-0.008 c -0.003,0.003 -0.005,0.005 -0.008,0.006 l 0.008,-0.006 z m 0.028,-0.029 c -0.025,0.025 -0.067,0.067 -0.125,0.126 l 0.028,-0.028 c 0.03,-0.031 0.065,-0.066 0.097,-0.098 m 0.019,-0.02 c -0.005,0.007 -0.013,0.013 -0.019,0.02 0.005,-0.006 0.012,-0.012 0.014,-0.014 0.002,-0.002 0.003,-0.004 0.005,-0.006 m 0.006,-0.005 -0.012,0.013 c -0.015,0.015 -0.03,0.029 -0.043,0.043 0.039,-0.04 0.055,-0.056 0.055,-0.056 m -356.874,-1.834 c 10.275,27.503 38.095,101.983 41.742,111.749 16.483,44.133 76.184,66.016 136.087,66.016 60.402,0 121.008,-22.235 137.788,-66.328 3.911,-10.279 32.179,-84.526 42.4,-111.375 -0.258,0.666 -0.66,1.264 -1.151,1.775 0.056,-0.055 0.098,-0.098 0.098,-0.098 0,0 -0.042,0.045 -0.158,0.16 -0.118,0.119 -0.16,0.164 -0.16,0.164 0,0 0,-0.001 0.002,-0.001 -0.652,0.659 -0.878,0.886 -0.878,0.886 -0.001,0 0.65,-0.658 0.953,-0.963 -2.586,2.535 -6.438,2.815 -9.833,3.202 -3.988,0.459 -8.293,1.822 -11.037,4.915 -2.697,3.034 -3.5,8.047 -4.777,11.809 -0.745,2.197 -1.493,4.392 -2.237,6.59 -0.718,2.109 -4.175,2.155 -6.217,2.307 -0.763,0.058 -1.525,0.079 -2.288,0.079 -2.448,0 -4.887,-0.226 -7.336,-0.226 -1.103,0 -2.204,0.046 -3.311,0.179 -4.173,0.496 -8.408,1.752 -11.881,4.182 -3.319,2.318 -4.754,5.192 -5.769,8.998 -1.405,3.918 -5.169,6.262 -8.983,7.428 -2.313,0.709 -4.564,0.98 -6.777,0.98 -6.407,0 -12.531,-2.258 -19.157,-2.632 -0.861,-0.049 -1.739,-0.075 -2.628,-0.075 -7.581,0 -15.904,1.865 -21.473,7.084 -2.992,2.806 -5.378,5.269 -9.359,6.721 -3.12,1.138 -6.459,1.658 -9.785,1.658 -1.029,0 -2.058,-0.05 -3.078,-0.146 -9.007,-0.857 -16.253,-6.643 -25.281,-7.74 -1.853,-0.225 -3.725,-0.338 -5.595,-0.338 -2.631,0 -5.262,0.226 -7.85,0.679 -4.764,0.836 -8.68,2.766 -13.002,4.775 -4.018,1.869 -8.594,2.874 -13.147,2.874 -4.195,0 -8.37,-0.851 -12.076,-2.665 -3.029,-1.477 -4.875,-3.715 -7.316,-5.884 -3.068,-2.77 -7.036,-4.484 -10.989,-5.542 -3.464,-0.927 -7.06,-1.363 -10.646,-1.363 -0.782,0 -1.564,0.018 -2.341,0.061 -4.829,0.252 -9.296,1.882 -14.048,2.502 -1.37,0.178 -2.861,0.282 -4.401,0.282 -6.357,0 -13.549,-1.781 -16.512,-7.53 -1.584,-3.072 -1.691,-5.944 -4.407,-8.475 -3.033,-2.827 -7.098,-4.431 -11.108,-5.26 -2.221,-0.459 -4.396,-0.587 -6.575,-0.587 -1.988,0 -3.982,0.108 -6.026,0.171 -0.297,0.011 -0.876,0.023 -1.607,0.023 -2.739,0 -7.636,-0.197 -8.092,-1.579 -1.216,-3.669 -2.434,-7.343 -3.65,-11.016 -1.489,-4.495 -2.552,-8.498 -7.114,-10.945 -3.441,-1.843 -7.019,-1.996 -10.775,-2.59 -3.042,-0.482 -7.035,-1.69 -8.239,-4.891 m -0.007,-0.02 c 0.002,0.005 0.004,0.014 0.009,0.02 -0.004,-0.005 -0.007,-0.013 -0.009,-0.02 m 347.375,11.195 -14.868,39.058 -22.489,59.072 c -7.292,19.161 -24.365,35.191 -49.373,46.353 -23.269,10.388 -52.677,16.108 -82.807,16.108 -29.909,0 -58.985,-5.659 -81.869,-15.93 -24.639,-11.064 -41.445,-27.035 -48.599,-46.183 -3.156,-8.451 -24.412,-65.365 -36.738,-98.36 2.186,0.309 3.981,0.635 5.555,1.48 1.985,1.064 2.633,2.594 3.976,6.695 l 0.278,0.848 2.195,6.62 1.454,4.392 c 1.884,5.693 9.629,5.693 13.789,5.693 0.819,0 1.465,-0.016 1.798,-0.026 0.615,-0.02 1.226,-0.044 1.834,-0.067 1.396,-0.052 2.714,-0.103 4.001,-0.103 2.153,0 3.806,0.141 5.362,0.464 3.512,0.724 6.359,2.031 8.232,3.772 0.671,0.628 0.954,1.301 1.588,3.066 0.401,1.114 0.858,2.376 1.572,3.766 3.53,6.853 11.493,10.784 21.848,10.784 1.735,0 3.475,-0.112 5.174,-0.334 2.294,-0.296 4.432,-0.782 6.499,-1.248 2.479,-0.561 4.821,-1.092 7.09,-1.212 0.675,-0.034 1.355,-0.051 2.027,-0.051 3.16,0 6.22,0.387 9.095,1.157 3.647,0.975 6.513,2.389 8.556,4.232 0.536,0.477 1.057,0.973 1.607,1.498 1.857,1.773 3.96,3.781 7.054,5.291 4.381,2.143 9.468,3.276 14.713,3.276 5.428,0 10.849,-1.187 15.678,-3.433 l 0.864,-0.402 c 3.745,-1.751 6.982,-3.261 10.646,-3.905 2.223,-0.388 4.515,-0.587 6.813,-0.587 1.619,0 3.26,0.098 4.869,0.294 3.599,0.437 7.104,1.894 10.81,3.437 4.487,1.866 9.126,3.796 14.625,4.318 1.214,0.119 2.441,0.174 3.646,0.174 4.179,0 8.16,-0.679 11.838,-2.02 4.814,-1.754 7.8,-4.572 10.687,-7.298 l 0.721,-0.68 c 3.704,-3.473 10.035,-5.463 17.371,-5.463 0.759,0 1.528,0.02 2.287,0.065 2.649,0.15 5.304,0.665 8.114,1.214 3.616,0.702 7.353,1.428 11.384,1.428 3.018,0 5.81,-0.406 8.531,-1.242 6.432,-1.967 11.004,-5.922 12.877,-11.14 l 0.084,-0.235 0.065,-0.244 c 0.795,-2.982 1.657,-4.4 3.411,-5.629 2.308,-1.615 5.475,-2.699 9.153,-3.14 0.764,-0.09 1.615,-0.135 2.601,-0.135 1.086,0 2.205,0.051 3.39,0.106 1.272,0.059 2.584,0.119 3.944,0.119 0.981,0 1.876,-0.03 2.735,-0.093 l 0.481,-0.034 c 2.699,-0.181 9.022,-0.6 10.97,-6.33 l 1.042,-3.062 1.197,-3.528 c 0.371,-1.093 0.694,-2.229 1.006,-3.326 0.689,-2.429 1.471,-5.183 2.575,-6.427 1.319,-1.482 3.809,-2.513 7.031,-2.913"
       id="path6"
       inkscape:connector-curvature="0" /><path
       d="m 486.57,373.717 c -5.798,0 -11.038,2.228 -16.719,2.598 -5.54,0.358 -11.07,-0.589 -16.62,-0.165 -7.08,0.543 -13.095,4.383 -20.286,4.383 -6.62,0 -13.508,-0.119 -19.566,3.032 -9.896,5.146 -24.548,1.905 -32.729,10.362 -6.608,6.834 -19.073,3.395 -26.623,10.539 -1.955,1.849 -2.256,4.938 -4.738,5.791 -2.788,0.961 -5.697,1.555 -8.496,2.497 -5.49,1.845 -11.346,5.027 -13.48,10.791 -1.369,3.695 0.477,4.185 -3.26,5.723 -2.58,1.062 -5.095,2.31 -7.311,4.031 -4.057,3.145 -5.141,7.476 -5.728,12.623 -0.045,0.385 0.057,6.984 0.062,6.977 -1.953,1.587 -3.674,3.495 -4.921,5.692 -2.954,5.206 -2.38,10.753 -0.187,16.163 2.379,5.869 4.389,8.085 4.629,14.128 -0.256,2.897 1.14,5.907 2.197,8.499 4.497,11.038 7.058,19.47 20.468,19.756 2.711,0.057 3.985,10.701 4.992,13.384 2.49,6.617 8.449,11.169 15.163,12.97 9.083,2.433 23.411,-2.944 27.469,7.651 4.601,12.017 18.883,16.458 30.671,15.495 9.525,-0.778 23.516,-6.807 31.294,2.035 8.993,10.218 24.268,12.801 36.992,9.449 11.665,-3.07 20.225,-10.151 32.836,-5.296 13.917,5.359 26.79,10.093 41.148,2.281 10.105,-5.497 13.847,-13.152 26.988,-10.931 11.59,1.972 22.669,4.42 33.383,-2.305 7.818,-4.906 8.03,-16.224 17.389,-17.331 8.24,-0.972 16.249,0.982 24.064,-3.088 9.445,-4.918 11.64,-15.596 13.742,-25.156 8.313,-1.234 15.514,-3.492 18.556,-12.371 1.902,-4.201 3.848,-8.728 4.469,-13.339 0.276,-1.837 0.194,-3.714 -0.214,-5.522 1.367,-1.773 2.741,-3.35 3.711,-5.398 4.689,-9.883 3.601,-21.419 -5.946,-27.759 2.526,-9.049 -0.311,-15.448 -8.557,-20.226 -4.168,-2.415 -6.461,-2.017 -7.708,-6.57 -1.176,-4.217 -3.108,-7.525 -6.814,-9.698 -4.775,-2.799 -10.185,-3.322 -15.206,-5.396 -2.064,-5.372 -7.312,-8.553 -12.54,-10.276 -4.325,-1.426 -8.837,-1.615 -13.205,-2.78 -4.488,-1.204 -7.023,-5.395 -11.63,-7.066 -4.99,-1.814 -10.286,-1.982 -15.507,-2.528 -5.622,-0.591 -9.529,-4.003 -14.851,-5.383 -5.617,-1.476 -11.138,-1.096 -16.833,-1.441 -5.726,-0.342 -10.573,-3.338 -16.217,-4.059 -4.478,-0.572 -8.962,-0.191 -13.45,-0.014 -6.132,0.242 -11.661,-1.692 -17.674,-2.441 -5.667,-0.708 -11.209,0.354 -16.838,0.907 -5.585,0.555 -10.798,-1.218 -16.369,-1.218"
       id="path8"
       inkscape:connector-curvature="0" /><path
       d="m 469.081,572.037 c -7.497,0 -15.419,-2.484 -20.576,-8.461 -4.036,-4.681 -10.152,-6.65 -15.991,-7.268 -8.383,-0.884 -15.941,2.742 -24.207,2.742 -7.324,0 -15.848,-2.497 -19.747,-9.589 -1.487,-2.719 -1.476,-5.924 -3.766,-8.14 -3,-2.938 -7.331,-4.262 -11.316,-4.758 -7.858,-0.976 -15.578,1.513 -22.857,-3.104 -2.906,-1.84 -5.123,-4.741 -5.869,-8.278 -0.496,-1.847 -3.571,-12.466 -3.999,-14.722 -0.63,-3.321 -10.732,-1.053 -14.13,-2.995 -3.081,-1.758 -4.628,-6.443 -5.615,-8.63 -0.988,-2.187 -4.02,-8.993 -4.217,-11.132 0.506,-1.013 11.598,-3.308 11.598,-3.308 0,0 -1.938,-0.543 -5.327,-1.71 -3.391,-1.168 -7.353,-4.554 -8.342,-6.459 -0.991,-1.902 -5.679,-10.085 -4.228,-14.237 2.148,-2.684 12.982,-2.403 15.372,-4.403 -0.557,-0.677 -6.6,-5.169 -7.281,-6.098 -2.334,-3.183 -1.791,-10.222 0.62,-13.096 2.54,-3.029 13.618,-1.505 17.525,-3.803 1.511,-0.889 -5.427,-0.465 -4.064,-1.617 1.755,-1.484 1.058,-6.437 1.323,-8.558 1.089,-8.713 15.719,-5.96 21.303,-8.172 1.663,-0.662 3.247,0.798 4.644,-0.378 0.848,-0.72 0.768,-3.247 1.512,-4.419 1.945,-3.076 9.429,-7.078 12.666,-8.066 3.62,-1.104 3.61,1.148 7.218,-0.015 1.727,-0.558 3.591,-1.228 5.051,-2.383 1.211,-0.939 1.787,-2.77 3.19,-3.771 3.471,-2.476 7.242,-4.231 11.183,-5.058 4.016,-0.841 8.207,-0.728 12.528,-0.727 2.921,0.001 4.596,-3.32 7.409,-4.326 4.043,-1.973 6.78,-2.613 10.749,-3.077 3.565,0.198 8.55,1.287 11.994,0.296 3.077,-0.88 5.645,-2.719 8.849,-3.343 7.108,-1.388 14.16,0.754 21.289,-0.479 3.118,-0.542 5.96,-1.926 9.116,-2.323 3.735,-0.469 7.648,-0.36 11.297,0.616 7.392,2.002 14.262,-0.907 21.604,-0.821 5.477,0.064 10.233,2.447 15.602,2.96 6.566,0.62 12.965,-1.158 19.505,0.379 2.985,0.703 5.438,2.49 8.367,3.28 3.652,0.98 7.4,-0.333 11.143,-0.42 3.261,0.288 5.465,1.55 9.787,3.474 3.804,1.588 6.13,3.095 9.558,4.266 3.957,1.351 4.723,-0.616 9.046,-0.142 4.586,0.501 11.553,3.602 14.71,6.343 1.273,1.106 1.745,2.775 3.158,3.631 1.463,0.893 3.105,1.506 4.727,2.005 2.822,0.867 0.654,-1.735 3.552,-1.235 4.438,0.902 11.801,5.044 14.372,7.401 1.36,1.249 2.416,2.913 2.621,4.835 0.181,1.746 1.758,2.219 3.364,1.906 0.611,-0.119 1.246,-0.318 2.185,-0.087 3.462,1.12 11.945,-0.662 15.554,2.482 2.555,2.229 4.617,2.281 5.136,6.067 0.233,1.711 0.858,9.88 2.175,9.726 3.406,1.527 9.831,0.188 12.916,3.89 1.352,1.622 2.438,3.052 1.706,5.826 -0.735,2.771 -3.234,11.322 -2.564,11.835 3.222,2.464 8.326,1.674 9.752,5.239 1.53,3.822 -0.571,12.421 -2.826,14.948 -0.674,0.753 -4.229,5.342 -4.339,6.223 1.674,2.296 1.595,2.84 1.518,4.473 -0.078,1.634 -1.265,6.109 -4.109,12.45 -2.647,8.584 -12.749,6.817 -19.185,9.049 -0.622,3.424 -3.65,18.007 -6.306,21.434 -5.263,6.788 -14.066,6.267 -21.517,6.023 -3.78,-0.121 -7.664,0.43 -11.171,1.957 -1.618,0.704 -3.181,1.633 -4.468,2.885 -1.718,1.664 -2.003,3.442 -2.678,5.653 -2.389,7.822 -10.452,11.376 -17.652,12.049 -6.028,0.564 -11.302,-1.257 -17.146,-2.267 -5.677,-0.982 -11.702,-0.638 -17.173,1.294 -2.582,0.909 -5.127,2.215 -7.157,4.142 -1.906,1.821 -3.416,3.845 -5.612,5.343 -4.8,3.284 -10.632,4.685 -16.314,4.685 -5.813,0 -11.667,-1.473 -16.745,-4.46 -5.001,-2.923 -10.923,-4.038 -16.595,-4.038 -5.674,0.007 -11.606,1.107 -16.595,4.062 -5.099,3.019 -10.975,4.504 -16.81,4.504"
       id="path10"
       inkscape:connector-curvature="0"
       style="fill:#990033" /><path
       d="m 468.332,553.273 c -7.67,0 -15.777,-2.256 -21.053,-7.681 -4.133,-4.25 -10.388,-6.038 -16.362,-6.598 -8.577,-0.803 -16.311,2.487 -24.773,2.487 -7.492,0 -16.212,-2.266 -20.206,-8.704 -1.52,-2.466 -1.508,-5.377 -3.851,-7.389 -3.066,-2.668 -7.503,-3.87 -11.578,-4.319 -8.04,-0.889 -15.941,1.374 -23.389,-2.817 -2.973,-1.672 -5.324,-4.291 -6.004,-7.515 -0.323,-1.558 -0.246,-3.16 0.16,-4.695 0.407,-1.519 1.276,-2.894 0.566,-4.463 -1.287,-2.849 -5.357,-4.035 -8.326,-4.501 -3.8,-0.6 -7.478,-0.661 -10.952,-2.421 -3.154,-1.598 -5.59,-4.389 -5.747,-7.833 -0.174,-3.877 2.308,-6.45 4.772,-9.232 2.494,-2.815 0.843,-4.762 -2.541,-5.587 -3.587,-0.874 -7.249,-2.813 -8.37,-6.336 -1.173,-3.671 1.052,-7.192 3.921,-9.571 2.471,-2.047 6.296,-3.233 7.912,-6.068 0.551,-0.971 -2.723,-2.415 -3.419,-3.26 -2.386,-2.891 -1.652,-6.612 0.816,-9.22 2.598,-2.745 6.196,-4.108 9.716,-5.504 1.642,-0.646 3.253,-1.436 4.646,-2.483 1.796,-1.349 0.488,-1.57 0.125,-3.483 -1.581,-8.4 11.662,-10.182 17.371,-12.189 1.706,-0.599 3.45,-1.324 4.879,-2.395 0.872,-0.65 0.79,-2.948 1.551,-4.012 1.99,-2.791 5.761,-4.199 9.076,-5.097 3.704,-1.001 7.579,-1.182 11.269,-2.237 1.77,-0.507 3.678,-1.113 5.172,-2.166 1.235,-0.85 1.828,-2.512 3.264,-3.42 7.168,-4.537 16.432,-2.58 24.258,-5.251 2.792,-0.954 4.7,-3.014 7.582,-3.929 3.91,-1.24 8.207,-1.632 12.314,-1.436 3.647,0.18 7.436,-0.186 10.961,-1.087 3.15,-0.799 5.776,-2.467 9.054,-3.036 7.274,-1.26 14.488,0.688 21.782,-0.433 3.189,-0.492 6.097,-1.75 9.33,-2.109 3.819,-0.427 7.828,-0.327 11.557,0.557 7.567,1.819 14.592,-0.821 22.105,-0.743 5.605,0.058 10.47,2.221 15.964,2.687 6.72,0.566 13.268,-1.049 19.962,0.348 3.05,0.634 5.565,2.258 8.559,2.974 3.737,0.891 7.525,1.052 11.355,0.97 3.447,-0.072 6.96,0.265 10.28,1.155 3.633,0.961 6.054,3.458 9.56,4.521 7.802,2.361 17.595,0.456 24.307,5.631 1.303,1.002 1.787,2.519 3.232,3.295 1.497,0.811 3.176,1.367 4.835,1.82 2.891,0.785 5.879,1.014 8.803,1.643 3.349,0.721 6.908,1.814 9.538,3.955 1.394,1.135 2.474,2.645 2.682,4.389 0.184,1.584 1.944,2.199 3.441,2.86 4.774,2.103 10.082,2.467 14.609,5.173 2.876,1.723 5.474,4.566 4.738,7.971 -0.298,1.375 -1.443,1.862 -0.209,2.892 1.491,1.241 3.324,2.134 5.155,2.859 5.442,2.153 15.6,6.935 11.082,14.025 -0.834,1.314 -2.119,2.32 -3.555,3.03 -1.02,0.507 0.169,1.441 0.738,2.015 2.556,2.572 6.255,3.765 8.725,6.481 2.379,2.595 3.498,6.187 1.706,9.351 -2.017,3.557 -5.74,3.938 -9.27,5.453 -3.851,1.652 -1.267,4.35 0.656,6.344 2.644,2.743 4.391,6.493 3.108,10.178 -2.708,7.796 -12.143,6.51 -18.729,8.537 -3.093,0.954 -6.799,3.23 -5.292,6.735 1.584,3.68 1.139,7.805 -1.573,10.914 -5.386,6.162 -14.393,5.69 -22.02,5.469 -3.866,-0.109 -7.843,0.39 -11.431,1.778 -1.653,0.641 -3.252,1.482 -4.573,2.618 -1.754,1.509 -2.047,3.125 -2.739,5.136 -2.444,7.099 -10.696,10.328 -18.064,10.939 -6.166,0.509 -11.564,-1.142 -17.54,-2.061 -5.814,-0.89 -11.977,-0.58 -17.576,1.173 -2.643,0.828 -5.246,2.012 -7.323,3.764 -1.953,1.652 -3.495,3.489 -5.741,4.85 -4.911,2.982 -10.881,4.253 -16.695,4.253 -5.944,0 -11.939,-1.338 -17.135,-4.049 -5.116,-2.652 -11.174,-3.665 -16.978,-3.665 -5.806,0.005 -11.878,1.004 -16.98,3.689 -5.217,2.727 -11.231,4.076 -17.2,4.076"
       id="path12"
       inkscape:connector-curvature="0"
       style="fill:#cc0000" /><path
       d="m 547.879,431.47 c 0,12.269 -21.826,22.218 -48.753,22.218 -26.923,0 -48.753,-9.947 -48.753,-22.218 0,-12.271 21.828,-22.221 48.753,-22.22 26.925,0.002 48.753,9.95 48.753,22.22"
       id="path14"
       inkscape:connector-curvature="0" /><path
       d="m 552.523,511.846 c -5.437,0 -10.856,-0.981 -15.671,-2.839 -5.875,-2.265 -10.183,-5.647 -12.461,-9.777 -0.251,-0.456 -0.452,-0.791 -0.615,-1.062 -0.94,-1.573 -1.099,-2.17 -1.216,-4.559 l -0.218,-4.464 -0.328,-7.028 5.298,4.629 c 1.507,1.314 3.251,2.489 5.188,3.484 5.769,2.97 12.636,4.538 19.862,4.538 6.819,0 13.379,-1.405 18.972,-4.065 2.207,-1.048 4.205,-2.346 5.939,-3.859 l 5.358,-4.664 -0.39,7.095 c -0.076,1.324 -0.153,1.891 -0.221,2.388 -0.061,0.442 -0.114,0.819 -0.173,1.909 -0.369,7.216 -6.485,11.632 -10.098,13.621 -5.532,3.044 -12.179,4.653 -19.226,4.653"
       id="path16"
       inkscape:connector-curvature="0"
       style="fill:#ffcc00" /><path
       d="m 518.689,475.227 0.656,14.056 c 0.044,0.898 0.088,1.796 0.133,2.693 l 0.087,1.773 c 0.135,2.713 0.367,3.826 1.641,5.957 0.148,0.248 0.334,0.556 0.566,0.978 2.618,4.75 7.462,8.599 14.003,11.122 5.158,1.988 10.951,3.042 16.754,3.042 7.552,0 14.697,-1.738 20.668,-5.027 7.184,-3.953 11.321,-9.673 11.65,-16.102 0.05,-0.95 0.093,-1.256 0.148,-1.643 0.09,-0.648 0.171,-1.294 0.245,-2.635 l 0.786,-14.189 -10.717,9.329 c -1.528,1.334 -3.296,2.479 -5.257,3.413 -5.192,2.467 -11.308,3.774 -17.684,3.774 -6.75,0 -13.144,-1.454 -18.489,-4.204 -1.72,-0.887 -3.262,-1.921 -4.586,-3.077 l -10.604,-9.26 z m 6.649,13.776 c 1.643,1.435 3.566,2.75 5.789,3.894 6.19,3.184 13.53,4.869 21.235,4.869 7.261,0 14.267,-1.506 20.26,-4.355 2.573,-1.226 4.766,-2.691 6.62,-4.306 -0.135,2.417 -0.263,1.885 -0.394,4.306 -0.26,5.062 -4.391,8.864 -8.552,11.154 -5.268,2.899 -11.529,4.281 -17.775,4.281 -5.053,0 -10.096,-0.905 -14.592,-2.638 -4.272,-1.647 -8.64,-4.306 -10.912,-8.428 -1.282,-2.319 -1.338,-1.775 -1.463,-4.321 -0.07,-1.485 -0.145,-2.97 -0.216,-4.456"
       id="path18"
       inkscape:connector-curvature="0" /><path
       d="m 552.358,494.352 c -7.1,0 -13.864,-1.37 -19.556,-3.966 -7.956,-3.618 -12.116,-9.238 -11.416,-15.429 0.613,-5.448 4.961,-10.131 12.24,-13.189 5.512,-2.314 11.959,-3.537 18.645,-3.537 6.731,0 13.2,1.242 18.718,3.588 0.492,0.173 1.17,0.447 1.852,0.847 6.775,3.37 10.497,8.23 10.483,13.695 -0.005,5.896 -4.493,11.167 -12.312,14.449 -5.52,2.319 -11.972,3.542 -18.654,3.542"
       id="path20"
       inkscape:connector-curvature="0"
       style="fill:#ffcc00" /><path
       d="m 552.273,455.233 c -7.08,0 -13.929,1.306 -19.806,3.771 -8.327,3.496 -13.322,9.046 -14.062,15.623 -0.845,7.447 4.075,14.362 13.158,18.495 6.076,2.768 13.267,4.232 20.794,4.232 7.078,0 13.93,-1.307 19.817,-3.772 8.989,-3.774 14.146,-10.049 14.154,-17.219 0.017,-6.635 -4.264,-12.434 -12.061,-16.333 -0.81,-0.464 -1.596,-0.79 -2.188,-1.003 -5.867,-2.483 -12.71,-3.794 -19.806,-3.794 m 0,6 c 6.377,0 12.456,1.167 17.639,3.389 0.486,0.166 1.029,0.399 1.497,0.684 3.656,1.799 8.931,5.376 8.917,11.048 -0.005,4.636 -3.822,8.898 -10.474,11.69 -5.157,2.165 -11.206,3.307 -17.498,3.307 -6.664,0 -13.002,-1.276 -18.312,-3.693 -6.691,-3.045 -10.222,-7.544 -9.678,-12.361 0.488,-4.323 4.196,-8.146 10.422,-10.76 5.161,-2.165 11.21,-3.304 17.487,-3.304"
       id="path22"
       inkscape:connector-curvature="0" /><path
       d="m 612.724,481.122 c -5.437,0 -10.856,-0.981 -15.672,-2.836 -5.874,-2.265 -10.182,-5.647 -12.46,-9.777 -0.251,-0.452 -0.452,-0.789 -0.614,-1.059 -0.94,-1.575 -1.099,-2.172 -1.219,-4.561 l -0.571,-11.502 5.32,4.635 c 1.512,1.321 3.262,2.493 5.196,3.49 5.762,2.968 12.632,4.536 19.859,4.536 6.816,0 13.375,-1.405 18.972,-4.066 2.203,-1.045 4.199,-2.343 5.936,-3.856 l 5.349,-4.662 -0.383,7.083 c -0.072,1.338 -0.15,1.905 -0.218,2.405 -0.062,0.441 -0.113,0.819 -0.172,1.902 -0.367,7.207 -6.481,11.626 -10.094,13.619 -5.536,3.042 -12.183,4.649 -19.229,4.649"
       id="path24"
       inkscape:connector-curvature="0"
       style="fill:#75ba1c" /><path
       d="m 578.839,444.486 0.704,14.096 c 0.074,1.48 0.145,2.959 0.218,4.441 0.137,2.722 0.369,3.831 1.641,5.965 0.149,0.248 0.335,0.557 0.566,0.975 2.62,4.753 7.463,8.6 14.004,11.123 5.157,1.987 10.952,3.036 16.754,3.036 7.551,0 14.698,-1.737 20.669,-5.02 7.186,-3.965 11.321,-9.682 11.646,-16.11 0.051,-0.934 0.094,-1.241 0.149,-1.63 0.092,-0.676 0.17,-1.301 0.245,-2.653 l 0.764,-14.169 -10.697,9.322 c -1.531,1.333 -3.297,2.479 -5.251,3.407 -5.197,2.469 -11.312,3.775 -17.684,3.775 -6.754,0 -13.146,-1.454 -18.488,-4.204 -1.719,-0.884 -3.264,-1.92 -4.597,-3.082 l -10.643,-9.272 z m 6.696,13.796 c 1.643,1.432 3.566,2.749 5.791,3.893 6.185,3.184 13.528,4.869 21.235,4.869 7.263,0 14.266,-1.507 20.259,-4.356 2.575,-1.222 4.762,-2.688 6.618,-4.305 -0.13,2.418 -0.261,1.886 -0.395,4.305 -0.256,5.06 -4.387,8.862 -8.545,11.155 -5.268,2.899 -11.53,4.279 -17.776,4.279 -5.053,0 -10.097,-0.904 -14.593,-2.635 -4.269,-1.647 -8.64,-4.31 -10.913,-8.429 -1.28,-2.314 -1.336,-1.775 -1.463,-4.322 -0.07,-1.487 -0.143,-2.969 -0.218,-4.454"
       id="path26"
       inkscape:connector-curvature="0" /><path
       d="m 612.556,463.629 c -7.1,0 -13.862,-1.37 -19.556,-3.962 -7.951,-3.616 -12.111,-9.236 -11.417,-15.423 0.616,-5.454 4.967,-10.14 12.247,-13.194 5.515,-2.315 11.961,-3.538 18.639,-3.538 6.725,0 13.198,1.241 18.721,3.59 0.486,0.17 1.159,0.446 1.848,0.846 6.775,3.369 10.499,8.229 10.486,13.696 -0.005,5.895 -4.493,11.163 -12.31,14.449 -5.524,2.313 -11.976,3.536 -18.658,3.536"
       id="path28"
       inkscape:connector-curvature="0"
       style="fill:#75ba1c" /><path
       d="m 612.471,424.51 c -7.073,0 -13.918,1.305 -19.802,3.771 -8.327,3.495 -13.322,9.043 -14.064,15.624 -0.84,7.452 4.08,14.364 13.155,18.494 6.079,2.767 13.271,4.23 20.796,4.23 7.076,0 13.929,-1.304 19.817,-3.769 8.991,-3.78 14.147,-10.052 14.154,-17.219 0.015,-6.638 -4.267,-12.436 -12.066,-16.34 -0.812,-0.462 -1.591,-0.786 -2.177,-0.999 -5.877,-2.48 -12.721,-3.792 -19.813,-3.792 m 0,6 c 6.378,0 12.457,1.17 17.641,3.392 0.487,0.165 1.027,0.4 1.497,0.682 3.652,1.8 8.93,5.378 8.916,11.049 -0.003,4.634 -3.826,8.898 -10.469,11.692 -5.161,2.16 -11.214,3.304 -17.5,3.304 -6.665,0 -13,-1.273 -18.312,-3.692 -6.692,-3.044 -10.218,-7.546 -9.678,-12.36 0.489,-4.325 4.195,-8.148 10.423,-10.762 5.159,-2.164 11.205,-3.305 17.482,-3.305"
       id="path30"
       inkscape:connector-curvature="0" /><path
       d="m 499.38,439.947 c -6.906,0 -18.701,-2.721 -19.099,-12.917 -0.785,-20.08 -9.229,-120.754 -11.137,-143.387 l 60.909,0.233 c -3.313,42.823 -10.97,140.992 -11.574,145.019 -0.51,3.143 -3.02,6.169 -6.889,8.298 -3.231,1.775 -7.569,2.754 -12.21,2.754"
       id="path32"
       inkscape:connector-curvature="0"
       style="fill:#ffffff" /><path
       d="m 464.791,279.627 c 0,0 10.62,125.223 11.494,147.56 0.451,11.578 11.925,16.76 23.097,16.76 5.299,0 10.324,-1.154 14.14,-3.25 4.952,-2.725 8.199,-6.796 8.909,-11.167 0.733,-4.478 11.944,-149.637 11.944,-149.637 l -69.584,-0.266 z m 8.707,8.033 52.233,0.2 c -4.404,56.918 -10.585,135.621 -11.208,140.435 -0.325,1.857 -2.182,3.92 -4.854,5.391 -2.618,1.435 -6.368,2.261 -10.289,2.261 -0.602,0 -14.754,-0.105 -15.102,-9.075 -0.746,-19.065 -8.342,-110.217 -10.78,-139.212"
       id="path34"
       inkscape:connector-curvature="0" /><path
       d="m 579.406,217.769 c 0,44.042 -35.71,79.75 -79.746,79.75 -44.049,0 -79.756,-35.708 -79.756,-79.75 0,-44.043 35.707,-79.751 79.756,-79.751 44.036,0 79.746,35.708 79.746,79.751"
       id="path36"
       inkscape:connector-curvature="0" /><path
       d="m 550.091,267.631 c -28.399,28.403 -74.177,28.679 -102.236,0.622 -28.062,-28.065 -27.786,-73.841 0.616,-102.245 28.4,-28.403 74.178,-28.679 102.244,-0.615 28.059,28.056 27.781,73.834 -0.624,102.238"
       id="path38"
       inkscape:connector-curvature="0"
       style="fill:#cc0000" /><path
       d="m 543.161,167.866 c 11.522,12.741 13.122,27.931 7.377,31.037 -5.793,3.217 -16.459,-3.226 -26.358,-11.753 -9.725,-8.631 -16.022,-19.18 -11.902,-26.507 4.006,-7.277 19.34,-5.566 30.883,7.223"
       id="path40"
       inkscape:connector-curvature="0"
       style="fill:#ffffff" /></g></svg>